# xmcd
#
# Track frame offsets:
#	150
#	30021
#	46576
#	68941
#	85247
#	103398
#	131499
#	150194
#	157148
#	181360
#	208432
#	230781
#	252807
#	273051
#	296903
#	327613
#
# Disc length: 4678 seconds
#
# Revision: 0
# Processed by: cddbd v1.5.1PL0 Copyright (c) Steve Scherf et al.
# Submitted via: EasyCDDAExtractor 8.0.2.1
#
DISCID=e5124410
DTITLE=Common - Like Water For Chocolate
DYEAR=2000
DGENRE=Hip-Hop
TTITLE0=Time Traveling (A Tribute To Fela) (Featuring Femi Kuti)
TTITLE1=Heat
TTITLE2=Cold Blooded
TTITLE3=Dooinit
TTITLE4=The Light
TTITLE5=Funky For You
TTITLE6=The Question (Featuring Mos Def)
TTITLE7=Time Traveling (Reprise)
TTITLE8=The 6th Sense
TTITLE9=A Film Called (Pimp) (Featuring MC Lyte)
TTITLE10=Afrodesiac For The World
TTITLE11=Thelonius (Featuring Slum Village)
TTITLE12=Payback Is A Grandmother
TTITLE13=Ghetto Heaven (Featuring D'Angelo)
TTITLE14=A Song For Assata (Featuring Cee-Lo)
TTITLE15=Pops Rap 3 (All My Children)
EXTD=
EXTT0=
EXTT1=
EXTT2=
EXTT3=
EXTT4=
EXTT5=
EXTT6=
EXTT7=
EXTT8=
EXTT9=
EXTT10=
EXTT11=
EXTT12=
EXTT13=
EXTT14=
EXTT15=
PLAYORDER=
